<?xml version="1.0" encoding="UTF-8" standalone="no"?>
<!-- Generator: Adobe Illustrator 19.0.0, SVG Export Plug-In . SVG Version: 6.00 Build 0)  -->

<svg
   xmlns:dc="http://purl.org/dc/elements/1.1/"
   xmlns:cc="http://creativecommons.org/ns#"
   xmlns:rdf="http://www.w3.org/1999/02/22-rdf-syntax-ns#"
   xmlns:svg="http://www.w3.org/2000/svg"
   xmlns="http://www.w3.org/2000/svg"
   xmlns:sodipodi="http://sodipodi.sourceforge.net/DTD/sodipodi-0.dtd"
   xmlns:inkscape="http://www.inkscape.org/namespaces/inkscape"
   version="1.1"
   id="Layer_1"
   x="0px"
   y="0px"
   viewBox="0 0 46 46"
   xml:space="preserve"
   inkscape:version="0.91 r13725"
   sodipodi:docname="marker_ab_green.svg"
   width="46"
   height="46"><metadata
     id="metadata11"><rdf:RDF><cc:Work
         rdf:about=""><dc:format>image/svg+xml</dc:format><dc:type
           rdf:resource="http://purl.org/dc/dcmitype/StillImage" /><dc:title></dc:title></cc:Work></rdf:RDF></metadata><defs
     id="defs9" /><sodipodi:namedview
     pagecolor="#ffffff"
     bordercolor="#666666"
     borderopacity="1"
     objecttolerance="10"
     gridtolerance="10"
     guidetolerance="10"
     inkscape:pageopacity="0"
     inkscape:pageshadow="2"
     inkscape:window-width="1920"
     inkscape:window-height="1059"
     id="namedview7"
     showgrid="false"
     inkscape:zoom="11.313709"
     inkscape:cx="7.2965555"
     inkscape:cy="17.532442"
     inkscape:window-x="1920"
     inkscape:window-y="0"
     inkscape:window-maximized="1"
     inkscape:current-layer="Layer_1" /><style
     type="text/css"
     id="style3">
	.st0{fill:#333333;}
</style><g
     id="XMLID_2_"
     transform="matrix(0.66503475,0,0,0.66503475,-11.349287,-7.145392)"
     style="fill:#0c9648;fill-opacity:1" /><path
     id="path4188"
     style="fill:#0c9648;fill-opacity:1;stroke:none"
     d="m 30.481464,19.755298 a 6.9928509,6.9928509 0 0 1 -6.992851,6.99285 6.9928509,6.9928509 0 0 1 -6.992851,-6.99285 6.9928509,6.9928509 0 0 1 6.992851,-6.992851 6.9928509,6.9928509 0 0 1 6.992851,6.992851 z m -0.666011,-0.185693 c 0,-1.8291 -0.653248,-3.331575 -1.894424,-4.638074 -1.241173,-1.306499 -2.808973,-1.894423 -4.638072,-1.894423 -1.829099,0 -3.331573,0.65325 -4.638073,1.894423 -1.306499,1.241176 -1.894424,2.808974 -1.894424,4.638074 0,1.829098 0.653249,3.331573 1.894424,4.638071 1.241174,1.3065 2.808974,1.894424 4.638073,1.894424 1.829099,0 3.331573,-0.653249 4.638072,-1.894424 1.306499,-1.241174 1.894424,-2.808973 1.894424,-4.638071 z m 6.532496,0 c 0,1.829098 -0.261299,3.396897 -0.849224,4.572747 L 26.22258,43.87049 c -0.2613,0.587925 -0.653249,0.979875 -1.241175,1.3065 -0.587923,0.326625 -1.110525,0.5226 -1.698448,0.5226 -0.587925,0 -1.17585,-0.13065 -1.698449,-0.457276 -0.522599,-0.326625 -0.91455,-0.783899 -1.175849,-1.306498 l -9.34147,-19.793464 c -0.587924,-1.17585 -0.849225,-2.743649 -0.849225,-4.572747 0,-3.592874 1.3065,-6.663147 3.854173,-9.210821 2.547674,-2.5476726 5.617947,-3.8541719 9.21082,-3.8541719 3.592873,0 6.663145,1.3064993 9.21082,3.8541719 2.547673,2.547674 3.854172,5.617947 3.854172,9.210821 z"
     inkscape:connector-curvature="0" /></svg>