<?xml version="1.0" encoding="UTF-8" standalone="no"?>
<!-- Generator: Adobe Illustrator 19.0.0, SVG Export Plug-In . SVG Version: 6.00 Build 0)  -->

<svg
   xmlns:dc="http://purl.org/dc/elements/1.1/"
   xmlns:cc="http://creativecommons.org/ns#"
   xmlns:rdf="http://www.w3.org/1999/02/22-rdf-syntax-ns#"
   xmlns:svg="http://www.w3.org/2000/svg"
   xmlns="http://www.w3.org/2000/svg"
   xmlns:sodipodi="http://sodipodi.sourceforge.net/DTD/sodipodi-0.dtd"
   xmlns:inkscape="http://www.inkscape.org/namespaces/inkscape"
   version="1.1"
   id="Layer_1"
   x="0px"
   y="0px"
   viewBox="0 0 46 46"
   xml:space="preserve"
   inkscape:version="0.91 r13725"
   sodipodi:docname="marker_ab_red.svg"
   width="46"
   height="46"><metadata
     id="metadata11"><rdf:RDF><cc:Work
         rdf:about=""><dc:format>image/svg+xml</dc:format><dc:type
           rdf:resource="http://purl.org/dc/dcmitype/StillImage" /><dc:title></dc:title></cc:Work></rdf:RDF></metadata><defs
     id="defs9" /><sodipodi:namedview
     pagecolor="#ffffff"
     bordercolor="#666666"
     borderopacity="1"
     objecttolerance="10"
     gridtolerance="10"
     guidetolerance="10"
     inkscape:pageopacity="0"
     inkscape:pageshadow="2"
     inkscape:window-width="1920"
     inkscape:window-height="1059"
     id="namedview7"
     showgrid="false"
     inkscape:zoom="22.627417"
     inkscape:cx="26.71273"
     inkscape:cy="15.821502"
     inkscape:window-x="1920"
     inkscape:window-y="0"
     inkscape:window-maximized="1"
     inkscape:current-layer="Layer_1" /><style
     type="text/css"
     id="style3">
	.st0{fill:#333333;}
</style><g
     id="XMLID_2_"
     transform="matrix(0.66503475,0,0,0.66503475,-11.349287,-7.145392)"
     style="fill:#96120c;fill-opacity:1" /><path
     id="path4188"
     style="fill:#96120c;fill-opacity:1;stroke:none"
     d="m 30.481464,19.755298 a 6.9928509,6.9928509 0 0 1 -6.992851,6.99285 6.9928509,6.9928509 0 0 1 -6.992851,-6.99285 6.9928509,6.9928509 0 0 1 6.992851,-6.992851 6.9928509,6.9928509 0 0 1 6.992851,6.992851 z m -0.666011,-0.185693 c 0,-1.8291 -0.653248,-3.331575 -1.894424,-4.638074 -1.241173,-1.306499 -2.808973,-1.894423 -4.638072,-1.894423 -1.829099,0 -3.331573,0.65325 -4.638073,1.894423 -1.306499,1.241176 -1.894424,2.808974 -1.894424,4.638074 0,1.829098 0.653249,3.331573 1.894424,4.638071 1.241174,1.3065 2.808974,1.894424 4.638073,1.894424 1.829099,0 3.331573,-0.653249 4.638072,-1.894424 1.306499,-1.241174 1.894424,-2.808973 1.894424,-4.638071 z m 6.532496,0 c 0,1.829098 -0.261299,3.396897 -0.849224,4.572747 L 26.22258,43.87049 c -0.2613,0.587925 -0.653249,0.979875 -1.241175,1.3065 -0.587923,0.326625 -1.110525,0.5226 -1.698448,0.5226 -0.587925,0 -1.17585,-0.13065 -1.698449,-0.457276 -0.522599,-0.326625 -0.91455,-0.783899 -1.175849,-1.306498 l -9.34147,-19.793464 c -0.587924,-1.17585 -0.849225,-2.743649 -0.849225,-4.572747 0,-3.592874 1.3065,-6.663147 3.854173,-9.210821 2.547674,-2.5476726 5.617947,-3.8541719 9.21082,-3.8541719 3.592873,0 6.663145,1.3064993 9.21082,3.8541719 2.547673,2.547674 3.854172,5.617947 3.854172,9.210821 z"
     inkscape:connector-curvature="0" /><path
     style="fill:#96120c;fill-opacity:1;stroke:none"
     d="M 22.440074,45.547071 C 21.527711,45.301072 20.88524,44.746513 20.400797,43.786836 19.396739,41.797808 10.972239,23.83302 10.775533,23.261484 c -0.363061,-1.054886 -0.477486,-1.938879 -0.474805,-3.668116 0.0028,-1.787986 0.143386,-2.730794 0.619578,-4.154253 1.376188,-4.113769 5.178397,-7.6021718 9.30204,-8.534317 2.417965,-0.5465783 4.827763,-0.4529594 7.085331,0.2752597 3.256737,1.0505187 6.186311,3.6256953 7.736563,6.8006503 0.897434,1.837967 1.225989,3.370784 1.222006,5.701048 -0.0031,1.783551 -0.166629,2.870012 -0.592207,3.933282 -0.446752,1.116177 -9.618407,20.508564 -9.831985,20.788577 -0.495848,0.650091 -1.796375,1.271951 -2.631649,1.25835 -0.201486,-0.0033 -0.548135,-0.05498 -0.770331,-0.114894 z"
     id="path4776"
     inkscape:connector-curvature="0" /><path
     style="fill:#96120c;fill-opacity:1;stroke:none"
     d="m 22.346454,45.53535 c -0.578671,-0.186289 -1.219024,-0.639974 -1.559448,-1.104857 -0.312761,-0.427107 -0.646005,-1.121562 -6.299739,-13.128191 -2.6147,-5.552742 -3.757369,-8.072164 -3.881877,-8.558986 -0.408532,-1.597345 -0.446633,-4.058924 -0.08992,-5.809349 0.510251,-2.503845 1.651212,-4.561393 3.622575,-6.532755 1.171879,-1.1718794 2.094893,-1.8571377 3.378355,-2.5081385 2.806279,-1.4234079 6.248983,-1.7375824 9.397362,-0.8575849 3.797478,1.0614263 7.361261,4.4422784 8.690643,8.2445464 0.958616,2.741813 0.921339,6.501607 -0.0865,8.724595 -0.145294,0.320474 -2.33942,4.992316 -4.875835,10.381871 -3.423371,7.274222 -4.696831,9.895947 -4.942189,10.174689 -0.496213,0.563727 -1.48187,1.02148 -2.301371,1.068788 -0.422199,0.02437 -0.783288,-0.0081 -1.052057,-0.09463 z"
     id="path4778"
     inkscape:connector-curvature="0" /><path
     style="fill:#96120c;fill-opacity:1;stroke:none"
     d="m 22.346454,45.53535 c -0.578306,-0.186172 -1.218764,-0.639757 -1.560045,-1.104857 -0.315356,-0.429768 -0.674095,-1.176126 -6.138941,-12.772116 -1.993182,-4.229382 -3.716527,-7.933401 -3.829656,-8.231154 -0.394441,-1.038164 -0.519286,-1.96646 -0.515605,-3.833855 0.0028,-1.429373 0.03636,-1.877287 0.196493,-2.62411 0.689589,-3.216012 2.472407,-5.932477 5.240484,-7.9848808 3.992025,-2.9599056 9.687531,-3.2659355 13.946289,-0.7493595 3.36458,1.9881893 5.791757,5.3675413 6.41219,8.9276703 0.31137,1.786686 0.25654,4.012567 -0.136896,5.55757 -0.09751,0.382916 -0.369029,1.118749 -0.603375,1.635184 -0.35935,0.791911 -7.169123,15.269124 -8.823069,18.757376 -0.636361,1.342115 -0.960335,1.722757 -1.833475,2.154185 -0.787514,0.389117 -1.667635,0.489431 -2.354394,0.268347 z"
     id="path4780"
     inkscape:connector-curvature="0" /><path
     style="fill:#96120c;fill-opacity:1;stroke:#96120c;stroke-width:0.08838835;stroke-opacity:0"
     d="m 22.475486,45.588282 c -0.704685,-0.180852 -1.349762,-0.645438 -1.791684,-1.290371 -0.133243,-0.194454 -1.248253,-2.481503 -2.477799,-5.08233 -4.513312,-9.546897 -7.186756,-15.260284 -7.387787,-15.788358 -0.394661,-1.036707 -0.519691,-1.965656 -0.516009,-3.833855 0.0028,-1.429373 0.03636,-1.877287 0.196493,-2.62411 0.516102,-2.406927 1.576764,-4.42603 3.270182,-6.225201 3.178681,-3.3771873 7.283345,-4.7614138 11.859417,-3.9993819 4.465412,0.7436042 8.552087,4.2971429 10.033411,8.7244809 0.478292,1.429505 0.609845,2.340491 0.608327,4.2126 -0.0014,1.744216 -0.132735,2.725084 -0.495213,3.698831 -0.10229,0.274788 -1.446901,3.184412 -2.988024,6.465829 -6.295093,13.403751 -6.73304,14.312746 -7.092531,14.72115 -0.508997,0.578252 -1.494893,1.032551 -2.314828,1.06667 -0.34307,0.01427 -0.74985,-0.0064 -0.903955,-0.04595 z"
     id="path4792"
     inkscape:connector-curvature="0" /></svg>